<svg version="1.1" xmlns="http://www.w3.org/2000/svg" xmlns:xlink="http://www.w3.org/1999/xlink">
    <symbol id="logo" viewBox="0 0 110 46">
        <path d="M54.3948 0H78.2648L82.7748 45.069H72.8198L71.8298 34.4452H60.8298L59.8398 45.069H49.8848L54.3948 0ZM61.7098 24.7524H70.9498L69.4648 9.63809H63.1398L61.7098 24.7524Z"/>
        <path fill-rule="evenodd" clip-rule="evenodd" d="M9.9 0.0547619V0H0V12.5405H0.11C0.11 20.2071 0.11 26.9429 0.11 34.6095C0.385 40.3048 5.775 44.7405 11.44 45.069H28.05H31.515H36.575H36.74H46.365V35.7595C46.365 35.7048 46.365 35.5952 46.365 35.5405V0.0547619H36.575V35.5405H28.05V0.0547619H18.26V35.5405H9.9V12.5405V0.0547619Z"/>
        <path fill-rule="evenodd" clip-rule="evenodd" d="M110 0L109.01 9.58333H100.65C100.485 9.58333 100.265 9.58333 100.1 9.58333H96.0851V35.2119C96.0851 40.4143 93.1151 45.069 86.1851 45.069V44.85V9.47381V0H90.4751H98.6151H110Z"/>
    </symbol>
    <symbol id="glasses" viewBox="0 0 71 26" fill="none">
        <circle cx="18.2002" cy="13" r="12" stroke-width="2"/>
        <circle cx="52" cy="13" r="12" stroke-width="2"/>
        <line x1="63.4004" y1="12" x2="70.2004" y2="12" stroke-width="2"/>
        <line y1="12" x2="7" y2="12" stroke-width="2"/>
        <path d="M27.2998 6.49991C32.4993 1.30032 37.6998 1.30006 42.8998 6.49991" stroke-width="2" stroke-linejoin="round"/>
    </symbol>
    <symbol id="programme" viewBox="0 0 22 16">
        <path fill-rule="evenodd" clip-rule="evenodd" d="M0 0V14L7.5 15.875L14.5 14.125L22 16V2L14.5 0.125L7.5 1.875L0 0ZM8 2.78078V14.7192L14 13.2192V1.28078L8 2.78078ZM7 2.78078L1 1.28078V13.2192L7 14.7192V2.78078ZM15 1.28078V13.2192L21 14.7192V2.78078L15 1.28078Z"/>
    </symbol>
    <symbol id="ticket" viewBox="0 0 26 16">
        <path fill-rule="evenodd" clip-rule="evenodd" d="M18 4V1H2C1.44772 1 1 1.44772 1 2V14C1 14.5523 1.44772 15 2 15H18V13H19V15H24C24.5523 15 25 14.5523 25 14V11.874C23.2748 11.4299 22 9.86384 22 8C22 6.13616 23.2748 4.57006 25 4.12602V2C25 1.44772 24.5523 1 24 1H19V4H18ZM26 2C26 0.895431 25.1046 0 24 0H2C0.895431 0 0 0.895431 0 2V14C0 15.1046 0.895431 16 2 16H24C25.1046 16 26 15.1046 26 14V11C24.3431 11 23 9.65685 23 8C23 6.34315 24.3431 5 26 5V2ZM18 11V6H19V11H18Z"/>
    </symbol>
    <symbol id="doc" viewBox="0 0 24 24">
        <path fill-rule="evenodd" clip-rule="evenodd" d="M3 1C3 0.447715 3.44772 2.98023e-08 4 2.98023e-08H15C15.5523 2.98023e-08 16 0.447715 16 1C16 1.55228 15.5523 2 15 2H5V20C5 20.5523 4.55228 21 4 21C3.44772 21 3 20.5523 3 20V1Z"/>
        <path fill-rule="evenodd" clip-rule="evenodd" d="M4 19C4.55228 19 5 19.4477 5 20V22H19V20C19 19.4477 19.4477 19 20 19C20.5523 19 21 19.4477 21 20V23C21 23.5523 20.5523 24 20 24H4C3.44772 24 3 23.5523 3 23V20C3 19.4477 3.44772 19 4 19Z"/>
        <path fill-rule="evenodd" clip-rule="evenodd" d="M20 5C20.5523 5 21 5.44772 21 6V16C21 16.5523 20.5523 17 20 17C19.4477 17 19 16.5523 19 16V6C19 5.44772 19.4477 5 20 5Z" fill="#230C11"/>
        <path fill-rule="evenodd" clip-rule="evenodd" d="M15 2.98023e-08C15.5523 2.98023e-08 16 0.447715 16 1V5H20C20.5523 5 21 5.44772 21 6C21 6.55228 20.5523 7 20 7H15C14.4477 7 14 6.55228 14 6V1C14 0.447715 14.4477 2.98023e-08 15 2.98023e-08Z"/>
        <path fill-rule="evenodd" clip-rule="evenodd" d="M14.2929 0.292893C14.6834 -0.0976311 15.3166 -0.0976311 15.7071 0.292893L20.7071 5.29289C21.0976 5.68342 21.0976 6.31658 20.7071 6.70711C20.3166 7.09763 19.6834 7.09763 19.2929 6.70711L14.2929 1.70711C13.9024 1.31658 13.9024 0.683417 14.2929 0.292893Z"/>
        <path fill-rule="evenodd" clip-rule="evenodd" d="M7 10C7 9.44771 7.44772 9 8 9H16C16.5523 9 17 9.44771 17 10C17 10.5523 16.5523 11 16 11H8C7.44772 11 7 10.5523 7 10Z"/>
        <path fill-rule="evenodd" clip-rule="evenodd" d="M7 14C7 13.4477 7.44772 13 8 13H13C13.5523 13 14 13.4477 14 14C14 14.5523 13.5523 15 13 15H8C7.44772 15 7 14.5523 7 14Z"/>
        <path fill-rule="evenodd" clip-rule="evenodd" d="M7 18C7 17.4477 7.44772 17 8 17H11C11.5523 17 12 17.4477 12 18C12 18.5523 11.5523 19 11 19H8C7.44772 19 7 18.5523 7 18Z"/>
    </symbol>
    <symbol id="arrow-left" viewBox="0 0 70 16" fill="none" xmlns="http://www.w3.org/2000/svg">
        <path d="M0.292892 8.70711C-0.0976334 8.31658 -0.0976334 7.68342 0.292892 7.29289L6.65685 0.928932C7.04738 0.538408 7.68054 0.538408 8.07107 0.928932C8.46159 1.31946 8.46159 1.95262 8.07107 2.34315L2.41422 8L8.07107 13.6569C8.46159 14.0474 8.46159 14.6805 8.07107 15.0711C7.68054 15.4616 7.04738 15.4616 6.65685 15.0711L0.292892 8.70711ZM70 9H1V7H70V9Z" fill="#BDB6B8" fill-opacity="0.5"/>
    </symbol>
    <symbol id="arrow-right" viewBox="0 0 70 16">
        <path d="M69.7071 8.70711C70.0976 8.31658 70.0976 7.68342 69.7071 7.29289L63.3431 0.928932C62.9526 0.538408 62.3195 0.538408 61.9289 0.928932C61.5384 1.31946 61.5384 1.95262 61.9289 2.34315L67.5858 8L61.9289 13.6569C61.5384 14.0474 61.5384 14.6805 61.9289 15.0711C62.3195 15.4616 62.9526 15.4616 63.3431 15.0711L69.7071 8.70711ZM0 9H69V7H0V9Z" fill="#918688" fill-opacity="0.6"/>
    </symbol>

</svg>
