<svg version="1.1" xmlns="http://www.w3.org/2000/svg" xmlns:xlink="http://www.w3.org/1999/xlink">
    <symbol id="logo" viewBox="0 0 110 46">
        <path d="M54.3948 0H78.2648L82.7748 45.069H72.8198L71.8298 34.4452H60.8298L59.8398 45.069H49.8848L54.3948 0ZM61.7098 24.7524H70.9498L69.4648 9.63809H63.1398L61.7098 24.7524Z"/>
        <path fill-rule="evenodd" clip-rule="evenodd" d="M9.9 0.0547619V0H0V12.5405H0.11C0.11 20.2071 0.11 26.9429 0.11 34.6095C0.385 40.3048 5.775 44.7405 11.44 45.069H28.05H31.515H36.575H36.74H46.365V35.7595C46.365 35.7048 46.365 35.5952 46.365 35.5405V0.0547619H36.575V35.5405H28.05V0.0547619H18.26V35.5405H9.9V12.5405V0.0547619Z"/>
        <path fill-rule="evenodd" clip-rule="evenodd" d="M110 0L109.01 9.58333H100.65C100.485 9.58333 100.265 9.58333 100.1 9.58333H96.0851V35.2119C96.0851 40.4143 93.1151 45.069 86.1851 45.069V44.85V9.47381V0H90.4751H98.6151H110Z"/>
    </symbol>
    <symbol id="logo-m" viewBox="0 0 140 87">
        <path fill-rule="evenodd" clip-rule="evenodd" d="M10.5962 61.1283C10.5962 57.0798 12.2456 53.4311 14.8947 50.782C17.5437 48.133 21.1924 46.4836 25.241 46.4836V35.8873C18.2935 35.8873 11.9457 38.7363 7.39736 43.2847C2.84898 47.8331 0 54.1308 0 61.1283C0 68.0759 2.84898 74.4236 7.39736 78.972C11.9457 83.5204 18.2935 86.3694 25.241 86.3694V75.7731C21.1924 75.7731 17.5437 74.1237 14.8947 71.4747C12.2456 68.8256 10.5962 65.1269 10.5962 61.1283Z" fill="#F32556"/>
        <path fill-rule="evenodd" clip-rule="evenodd" d="M18.8927 14.8947C21.5418 12.2456 25.1905 10.5962 29.239 10.5962C33.2876 10.5962 36.9363 12.2456 39.5854 14.8947C42.2344 17.5437 43.8838 21.1924 43.8838 25.241H54.48C54.48 18.2935 51.6311 11.9457 47.0827 7.39736C42.5343 2.84898 36.2365 0 29.239 0C22.2915 0 15.9938 2.84898 11.3954 7.39736C6.84703 11.9957 3.99805 18.2935 3.99805 25.241H14.5943C14.6443 21.1924 16.2437 17.5437 18.8927 14.8947Z" fill="#F32556"/>
        <path d="M35.6875 42.9847H37.2869L37.8867 41.5353H40.6357L41.2355 42.9847H42.9349L40.0359 36.0372H38.6365L35.6875 42.9847ZM39.2362 38.0865L39.986 40.0358H38.4865L39.2362 38.0865ZM47.8832 42.9847H49.4826V36.0372H44.8842L44.7843 37.4367C44.4844 41.2853 43.9346 41.4853 43.3348 41.3853L43.2848 42.9847C44.9342 43.2347 45.7839 42.4849 46.1838 38.8362L46.3337 37.5367H47.8832V42.9847ZM50.6822 37.5367H52.7814V42.9847H54.3808V37.5367H56.4801V36.0372H50.7321V37.5367H50.6822ZM56.1802 42.9847H57.7796L58.3794 41.5353H61.1284L61.7282 42.9847H63.4276L60.4787 36.0372H59.0792L56.1802 42.9847ZM59.7289 38.0865L60.4787 40.0358H58.9292L59.7289 38.0865ZM65.8767 42.9847L68.9756 38.6863V42.9847H70.5751V36.0372H69.1756L66.0767 40.3357V36.0372H64.4772V42.9847H65.8767ZM65.5769 34.2379C65.5769 35.1875 66.3266 35.8373 67.6761 35.8373C68.9257 35.8373 69.7754 35.1875 69.7254 34.2379H68.2259C68.2259 34.6877 68.026 34.7377 67.6261 34.7377C67.1763 34.7377 67.0263 34.6377 67.0263 34.2379H65.5769ZM77.3227 41.1354C76.8728 41.4853 76.323 41.6352 75.8232 41.6352C74.5737 41.6352 73.724 40.7855 73.724 39.536C73.724 38.1864 74.5736 37.4367 75.6733 37.4367C76.323 37.4367 76.7229 37.6366 77.0728 37.8866L77.7725 36.687C77.3727 36.2871 76.5729 35.9872 75.6733 35.9872C73.2741 35.9872 72.0246 37.5867 72.0246 39.586C72.0246 41.7352 73.524 43.1847 75.6733 43.1847C76.6229 43.1847 77.5226 42.8348 77.9225 42.385L77.3227 41.1354ZM79.222 42.9847H80.8214V39.6859L83.1706 42.9847H85.1699L82.3709 39.2361L84.9699 36.0372H83.0706L80.8214 39.0861V36.0372H79.222V42.9847ZM87.669 42.9847L90.7679 38.6863V42.9847H92.3673V36.0372H90.9678L87.8689 40.3357V36.0372H86.2695V42.9847H87.669ZM95.6661 42.9847L98.765 38.6863V42.9847H100.364V36.0372H98.965L95.8661 40.3357V36.0372H94.2666V42.9847H95.6661ZM95.3662 34.2379C95.3662 35.1875 96.116 35.8373 97.4655 35.8373C98.7151 35.8373 99.5648 35.1875 99.5148 34.2379H98.0153C98.0153 34.6877 97.8154 34.7377 97.4155 34.7377C96.9657 34.7377 96.8157 34.6377 96.8157 34.2379H95.3662ZM36.5872 57.6295H38.1866V52.1815H40.5858V50.682H36.6372V57.6295H36.5872ZM41.1356 54.1308C41.1356 56.33 42.735 57.7295 44.8342 57.7295C46.9335 57.7295 48.5329 56.23 48.5329 54.1308C48.5329 51.9316 46.9335 50.5321 44.8342 50.5321C42.585 50.5321 41.1356 52.1315 41.1356 54.1308ZM42.835 54.1308C42.835 52.8812 43.6846 52.0315 44.8342 52.0315C45.9338 52.0315 46.8335 52.8812 46.8335 54.1308C46.8335 55.2804 46.1338 56.23 44.8342 56.23C43.6846 56.23 42.835 55.3304 42.835 54.1308ZM54.7807 55.7302C54.3309 56.0801 53.7811 56.23 53.2812 56.23C52.0317 56.23 51.182 55.3803 51.182 54.1308C51.182 52.7813 52.0317 52.0315 53.1313 52.0315C53.7811 52.0315 54.1809 52.2315 54.5308 52.4814L55.2305 51.2818C54.8307 50.8819 54.031 50.582 53.1313 50.582C50.7321 50.582 49.4826 52.1815 49.4826 54.1808C49.4826 56.33 50.9821 57.7795 53.1313 57.7795C54.0809 57.7795 54.9806 57.4296 55.3805 56.9798L54.7807 55.7302ZM62.428 50.682H60.8285L59.429 54.0808L57.4797 50.682H55.6804L58.6793 55.6302L58.5793 55.8302C58.4794 56.0301 58.3294 56.1301 58.0795 56.1301C57.8796 56.1301 57.7796 56.0801 57.5797 55.9801L57.0299 57.3296C57.2298 57.4796 57.6797 57.6295 58.0795 57.6295C59.0292 57.6295 59.629 57.0297 60.1288 55.9801L62.428 50.682ZM62.0781 58.8291H63.5776V57.6295H67.876V58.8291H69.3755V56.1301H68.4258V50.682H63.8775L63.8275 52.0815C63.7275 54.3307 63.1277 55.7802 62.8278 56.1301H62.0781V58.8291ZM65.3269 53.3311L65.4269 52.1815H66.8264V56.1301H64.5772C64.8271 55.8302 65.227 54.5306 65.3269 53.3311ZM69.7754 57.6295H71.3748L71.9746 56.18H74.7236L75.3234 57.6295H77.0228L74.1238 50.682H72.7243L69.7754 57.6295ZM73.3241 52.6813L74.0738 54.6306H72.5244L73.3241 52.6813ZM79.6219 57.6295V55.2804C79.8718 55.3304 80.2716 55.3304 80.3716 55.3304C81.971 55.3304 82.9207 54.2307 82.9207 52.9812C82.9207 51.7816 82.2209 50.682 80.1217 50.682C79.5719 50.682 78.3723 50.682 78.0224 50.682V57.6295H79.6219ZM80.3216 52.1315C80.8714 52.1315 81.2713 52.3314 81.2713 52.9312C81.2713 53.581 80.7714 53.7809 80.3216 53.7809C80.0717 53.7809 79.8218 53.7809 79.6219 53.7309V52.1315C79.9717 52.1315 80.1217 52.1315 80.3216 52.1315ZM89.2684 55.7302C88.8186 56.0801 88.2688 56.23 87.769 56.23C86.5194 56.23 85.6697 55.3803 85.6697 54.1308C85.6697 52.7813 86.5194 52.0315 87.619 52.0315C88.2688 52.0315 88.6686 52.2315 89.0185 52.4814L89.7183 51.2818C89.3184 50.8819 88.5187 50.582 87.619 50.582C85.2199 50.582 83.9703 52.1815 83.9703 54.1808C83.9703 56.33 85.4698 57.7795 87.619 57.7795C88.5687 57.7795 89.4683 57.4296 89.8682 56.9798L89.2684 55.7302ZM90.368 52.1815H92.4673V57.6295H94.0667V52.1815H96.166V50.682H90.418V52.1815H90.368ZM97.3155 57.5796C97.7154 57.6295 98.6651 57.6295 99.3148 57.6295C100.814 57.6295 101.964 56.9298 101.964 55.4803C101.964 54.5806 101.464 54.0808 100.964 53.8809C101.464 53.531 101.764 53.0812 101.764 52.3314C101.764 51.3818 101.114 50.582 99.4148 50.582C98.6651 50.582 97.7154 50.632 97.3155 50.632V57.5796ZM99.5148 54.8305C100.015 54.8305 100.364 55.0305 100.364 55.4803C100.364 55.9301 100.065 56.23 99.4648 56.23C99.1649 56.23 99.0149 56.18 98.915 56.18V54.8805H99.5148V54.8305ZM99.4148 52.1315C99.8147 52.1315 100.165 52.3314 100.165 52.7813C100.165 53.2811 99.8147 53.431 99.4148 53.431H98.865V52.1815C99.0649 52.1315 99.2149 52.1315 99.4148 52.1315ZM103.663 57.6295H107.862V56.1301H105.213V54.8805H107.462V53.381H105.213V52.1815H107.762V50.682H103.663V57.6295ZM113.66 57.6295H115.259V50.682H113.66V53.3311H111.111V50.682H109.511V57.6295H111.111V54.8305H113.66V57.6295ZM121.357 57.6295H122.956V50.682H121.357V53.3311H118.808V50.682H117.208V57.6295H118.808V54.8305H121.357V57.6295ZM130.304 57.6295H131.903V50.682H130.304V57.6295ZM127.005 54.2807C127.605 54.2807 128.005 54.5806 128.005 55.1804C128.005 55.8302 127.655 56.1301 127.005 56.1301C126.855 56.1301 126.705 56.1301 126.555 56.0801V54.3307C126.705 54.3307 126.855 54.2807 127.005 54.2807ZM126.505 50.682H124.906V57.6295C125.306 57.6295 126.055 57.6295 126.755 57.6295C128.604 57.6295 129.604 56.6299 129.604 55.1304C129.604 53.7309 128.804 52.7813 127.055 52.7813C126.905 52.7813 126.705 52.7813 126.455 52.8312V50.682H126.505ZM135.302 57.6295L138.401 53.3311V57.6295H140V50.682H138.601L135.502 54.9805V50.682H133.903V57.6295H135.302ZM135.002 48.8826C135.002 49.8323 135.752 50.4821 137.101 50.4821C138.351 50.4821 139.201 49.8323 139.151 48.8826H137.651C137.651 49.3325 137.451 49.3825 137.051 49.3825C136.602 49.3825 136.452 49.2825 136.452 48.8826H135.002ZM36.5872 72.2243H38.1866V67.8259L40.1359 70.5249H40.3858L42.3351 67.8259V72.2743H43.9346V65.3268H42.4351L40.4358 68.2757L38.2866 65.3268H36.6871V72.2243H36.5872ZM51.8317 65.2768H50.2323L48.8328 68.6756L46.8835 65.2768H45.0842L48.0831 70.2251L47.9831 70.425C47.8832 70.6249 47.7332 70.7249 47.4833 70.7249C47.2834 70.7249 47.1834 70.6749 46.9835 70.5749L46.4337 71.9244C46.6336 72.0744 47.0834 72.2243 47.4833 72.2243C48.433 72.2243 49.0327 71.6246 49.5326 70.5749L51.8317 65.2768ZM54.8807 72.3743C56.1302 72.3743 57.3798 71.5746 57.3798 70.325C57.3798 69.5253 57.0799 68.9255 56.2302 68.6756V68.6256C56.88 68.2258 57.0799 67.626 57.0799 67.1262C57.0799 65.8766 56.1802 65.1769 54.9306 65.1769C53.931 65.1769 53.0313 65.6767 52.5815 66.3264L53.4812 67.3761C53.831 66.8762 54.2309 66.6763 54.7307 66.6763C55.1806 66.6763 55.4804 66.8762 55.4804 67.3261C55.4804 67.7759 55.0806 67.9759 54.6308 67.9759H54.031V69.4753H54.6807C55.4305 69.4753 55.7803 69.7752 55.7803 70.1751C55.7803 70.7249 55.2305 70.9248 54.8307 70.9248C54.2809 70.9248 53.6811 70.525 53.2812 70.0751L52.4315 71.1747C52.7814 71.6745 53.4812 72.3743 54.8807 72.3743ZM64.4772 72.2243H66.0767V65.2768H64.4772V72.2243ZM61.1284 68.9255C61.7282 68.9255 62.1281 69.2254 62.1281 69.8252C62.1281 70.475 61.7782 70.7749 61.1284 70.7749C60.9785 70.7749 60.8285 70.7749 60.6786 70.7249V68.9755C60.8785 68.9255 61.0285 68.9255 61.1284 68.9255ZM60.6786 65.2768H59.0792V72.2243C59.479 72.2243 60.2288 72.2243 60.9285 72.2243C62.7779 72.2243 63.7775 71.2247 63.7775 69.7252C63.7775 68.3257 62.9778 67.3761 61.2284 67.3761C61.0785 67.3761 60.8785 67.3761 60.6286 67.4261V65.2768H60.6786ZM68.026 72.2243H69.6254V68.9255L71.9746 72.2243H73.9739L71.1749 68.4757L73.7739 65.2768H71.8746L69.6254 68.3257V65.2768H68.026V72.2243ZM74.2238 72.2243H75.8232L76.423 70.7749H79.172L79.7718 72.2243H81.4712L78.5722 65.2768H77.1727L74.2238 72.2243ZM77.7725 67.3261L78.5222 69.2754H76.9728L77.7725 67.3261ZM86.4194 72.2243H88.0189V65.2768H83.4205L83.3205 66.6763C83.0206 70.5249 82.4708 70.7249 81.8711 70.6249L81.8211 72.2243C83.4705 72.4743 84.3202 71.7245 84.72 68.0758L84.87 66.7763H86.4194V72.2243ZM92.0174 68.9255C92.6172 68.9255 93.117 69.1754 93.117 69.8252C93.117 70.525 92.6672 70.7749 92.0174 70.7749C91.8675 70.7749 91.7175 70.7749 91.5676 70.7249V68.9755C91.7675 68.9255 91.9175 68.9255 92.0174 68.9255ZM91.5676 65.2768H89.9682V72.2243C90.368 72.2243 91.1178 72.2243 91.8175 72.2243C93.7668 72.2243 94.7665 71.2247 94.7665 69.7252C94.7665 68.3257 93.9667 67.3761 92.1174 67.3761C91.9675 67.3761 91.7675 67.3761 91.5176 67.4261V65.2768H91.5676ZM100.414 72.2243H102.014V65.2768H100.414V67.9259H97.8654V65.2768H96.2659V72.2243H97.8654V69.4253H100.414V72.2243ZM109.411 72.2243H111.011V65.2768H109.411V72.2243ZM106.062 68.9255C106.662 68.9255 107.062 69.2254 107.062 69.8252C107.062 70.475 106.712 70.7749 106.062 70.7749C105.912 70.7749 105.763 70.7749 105.613 70.7249V68.9755C105.763 68.9255 105.912 68.9255 106.062 68.9255ZM105.563 65.2768H103.963V72.2243C104.363 72.2243 105.113 72.2243 105.813 72.2243C107.662 72.2243 108.662 71.2247 108.662 69.7252C108.662 68.3257 107.862 67.3761 106.112 67.3761C105.962 67.3761 105.763 67.3761 105.513 67.4261V65.2768H105.563ZM114.359 72.2243L117.458 67.9259V72.2243H119.058V65.2768H117.658L114.559 69.5753V65.2768H112.96V72.2243H114.359ZM114.06 63.5274C114.06 64.4771 114.809 65.1269 116.159 65.1269C117.408 65.1269 118.258 64.4771 118.208 63.5274H116.709C116.709 63.9773 116.509 64.0273 116.109 64.0273C115.659 64.0273 115.509 63.9273 115.509 63.5274H114.06ZM35.7875 81.4211H37.8867V86.8691H39.4861V81.4211H41.5854V79.9216H35.7875V81.4211ZM42.735 86.8691H46.9835V85.3697H44.3344V84.1201H46.5836V82.6206H44.3344V81.4211H46.8835V79.9216H42.785V86.8691H42.735ZM47.7832 86.8691H49.3826L49.9824 85.4197H52.7314L53.3312 86.8691H55.0306L52.1316 79.9216H50.7321L47.7832 86.8691ZM51.3319 81.9709L52.0817 83.9202H50.5322L51.3319 81.9709ZM54.7307 81.4211H56.83V86.8691H58.4294V81.4211H60.5287V79.9216H54.7807V81.4211H54.7307ZM63.2277 86.8691V84.52C63.4776 84.57 63.8275 84.57 63.9774 84.57C65.5769 84.57 66.5265 83.4703 66.5265 82.2208C66.5265 81.0212 65.8268 79.9216 63.7275 79.9216C63.1777 79.9216 61.9781 79.9216 61.6283 79.9216V86.8691H63.2277ZM63.9274 81.3711C64.4772 81.3711 64.8771 81.571 64.8771 82.1708C64.8771 82.8206 64.3773 83.0205 63.9274 83.0205C63.6775 83.0205 63.4276 83.0205 63.2277 82.9705V81.4211C63.5776 81.3711 63.7275 81.3711 63.9274 81.3711Z" fill="white"/>
    </symbol>
    <symbol id="glasses" viewBox="0 0 71 26" fill="none">
        <circle cx="18.2002" cy="13" r="12" stroke-width="2"/>
        <circle cx="52" cy="13" r="12" stroke-width="2"/>
        <line x1="63.4004" y1="12" x2="70.2004" y2="12" stroke-width="2"/>
        <line y1="12" x2="7" y2="12" stroke-width="2"/>
        <path d="M27.2998 6.49991C32.4993 1.30032 37.6998 1.30006 42.8998 6.49991" stroke-width="2" stroke-linejoin="round"/>
    </symbol>
    <symbol id="programme" viewBox="0 0 22 16">
        <path fill-rule="evenodd" clip-rule="evenodd" d="M0 0V14L7.5 15.875L14.5 14.125L22 16V2L14.5 0.125L7.5 1.875L0 0ZM8 2.78078V14.7192L14 13.2192V1.28078L8 2.78078ZM7 2.78078L1 1.28078V13.2192L7 14.7192V2.78078ZM15 1.28078V13.2192L21 14.7192V2.78078L15 1.28078Z"/>
    </symbol>
    <symbol id="ticket" viewBox="0 0 26 16">
        <path fill-rule="evenodd" clip-rule="evenodd" d="M18 4V1H2C1.44772 1 1 1.44772 1 2V14C1 14.5523 1.44772 15 2 15H18V13H19V15H24C24.5523 15 25 14.5523 25 14V11.874C23.2748 11.4299 22 9.86384 22 8C22 6.13616 23.2748 4.57006 25 4.12602V2C25 1.44772 24.5523 1 24 1H19V4H18ZM26 2C26 0.895431 25.1046 0 24 0H2C0.895431 0 0 0.895431 0 2V14C0 15.1046 0.895431 16 2 16H24C25.1046 16 26 15.1046 26 14V11C24.3431 11 23 9.65685 23 8C23 6.34315 24.3431 5 26 5V2ZM18 11V6H19V11H18Z"/>
    </symbol>
    <symbol id="doc" viewBox="0 0 24 24">
        <path fill-rule="evenodd" clip-rule="evenodd" d="M3 1C3 0.447715 3.44772 2.98023e-08 4 2.98023e-08H15C15.5523 2.98023e-08 16 0.447715 16 1C16 1.55228 15.5523 2 15 2H5V20C5 20.5523 4.55228 21 4 21C3.44772 21 3 20.5523 3 20V1Z"/>
        <path fill-rule="evenodd" clip-rule="evenodd" d="M4 19C4.55228 19 5 19.4477 5 20V22H19V20C19 19.4477 19.4477 19 20 19C20.5523 19 21 19.4477 21 20V23C21 23.5523 20.5523 24 20 24H4C3.44772 24 3 23.5523 3 23V20C3 19.4477 3.44772 19 4 19Z"/>
        <path fill-rule="evenodd" clip-rule="evenodd" d="M20 5C20.5523 5 21 5.44772 21 6V16C21 16.5523 20.5523 17 20 17C19.4477 17 19 16.5523 19 16V6C19 5.44772 19.4477 5 20 5Z" fill="#230C11"/>
        <path fill-rule="evenodd" clip-rule="evenodd" d="M15 2.98023e-08C15.5523 2.98023e-08 16 0.447715 16 1V5H20C20.5523 5 21 5.44772 21 6C21 6.55228 20.5523 7 20 7H15C14.4477 7 14 6.55228 14 6V1C14 0.447715 14.4477 2.98023e-08 15 2.98023e-08Z"/>
        <path fill-rule="evenodd" clip-rule="evenodd" d="M14.2929 0.292893C14.6834 -0.0976311 15.3166 -0.0976311 15.7071 0.292893L20.7071 5.29289C21.0976 5.68342 21.0976 6.31658 20.7071 6.70711C20.3166 7.09763 19.6834 7.09763 19.2929 6.70711L14.2929 1.70711C13.9024 1.31658 13.9024 0.683417 14.2929 0.292893Z"/>
        <path fill-rule="evenodd" clip-rule="evenodd" d="M7 10C7 9.44771 7.44772 9 8 9H16C16.5523 9 17 9.44771 17 10C17 10.5523 16.5523 11 16 11H8C7.44772 11 7 10.5523 7 10Z"/>
        <path fill-rule="evenodd" clip-rule="evenodd" d="M7 14C7 13.4477 7.44772 13 8 13H13C13.5523 13 14 13.4477 14 14C14 14.5523 13.5523 15 13 15H8C7.44772 15 7 14.5523 7 14Z"/>
        <path fill-rule="evenodd" clip-rule="evenodd" d="M7 18C7 17.4477 7.44772 17 8 17H11C11.5523 17 12 17.4477 12 18C12 18.5523 11.5523 19 11 19H8C7.44772 19 7 18.5523 7 18Z"/>
    </symbol>
    <symbol id="arrow-left" viewBox="0 0 70 16" fill="none" xmlns="http://www.w3.org/2000/svg">
        <path d="M0.292892 8.70711C-0.0976334 8.31658 -0.0976334 7.68342 0.292892 7.29289L6.65685 0.928932C7.04738 0.538408 7.68054 0.538408 8.07107 0.928932C8.46159 1.31946 8.46159 1.95262 8.07107 2.34315L2.41422 8L8.07107 13.6569C8.46159 14.0474 8.46159 14.6805 8.07107 15.0711C7.68054 15.4616 7.04738 15.4616 6.65685 15.0711L0.292892 8.70711ZM70 9H1V7H70V9Z" fill="#BDB6B8" fill-opacity="0.5"/>
    </symbol>
    <symbol id="arrow-right" viewBox="0 0 70 16">
        <path d="M69.7071 8.70711C70.0976 8.31658 70.0976 7.68342 69.7071 7.29289L63.3431 0.928932C62.9526 0.538408 62.3195 0.538408 61.9289 0.928932C61.5384 1.31946 61.5384 1.95262 61.9289 2.34315L67.5858 8L61.9289 13.6569C61.5384 14.0474 61.5384 14.6805 61.9289 15.0711C62.3195 15.4616 62.9526 15.4616 63.3431 15.0711L69.7071 8.70711ZM0 9H69V7H0V9Z" fill="#918688" fill-opacity="0.6"/>
    </symbol>
    <symbol id="vkontakte" viewBox="0 0 15 9">
        <path fill-rule="evenodd" clip-rule="evenodd" d="M7.33912 8.89046H8.23612C8.23612 8.89046 8.50612 8.85946 8.64512 8.70446C8.77312 8.56146 8.76812 8.29446 8.76812 8.29446C8.76812 8.29446 8.75112 7.02746 9.30812 6.84246C9.86012 6.66146 10.5671 8.05446 11.3161 8.58946C11.8821 8.99446 12.3131 8.89046 12.3131 8.89046L14.3161 8.89246C14.3161 8.89246 15.3641 8.80945 14.8661 7.95146C14.8261 7.88145 14.5781 7.31646 13.3761 6.15646C12.1211 4.94246 12.2901 5.13846 13.8031 3.03846C14.7231 1.75846 15.0931 0.978455 14.9771 0.643455C14.8671 0.325455 14.1951 0.380455 14.1951 0.380455L11.9351 0.379455C11.9351 0.379455 11.7671 0.362455 11.6431 0.439455C11.5221 0.515455 11.4431 0.711455 11.4431 0.711455C11.4431 0.711455 11.0871 1.71946 10.6111 2.56146C9.60712 4.33746 9.20512 4.43146 9.04012 4.32146C8.65812 4.06346 8.75312 3.28846 8.75312 2.73746C8.75312 1.01546 9.00312 0.297455 8.26512 0.112455C8.02012 0.0514553 7.84012 0.0104553 7.21312 0.00145531C6.40912 -0.00554469 5.72712 0.00545532 5.34212 0.201455C5.08512 0.332455 4.88712 0.624455 5.00812 0.640455C5.15712 0.661455 5.49412 0.735455 5.67312 0.989455C5.90512 1.31746 5.89612 2.05246 5.89612 2.05246C5.89612 2.05246 6.02912 4.07946 5.58612 4.33046C5.28212 4.50346 4.86512 4.15046 3.97012 2.53946C3.51012 1.71346 3.16512 0.784455 3.16512 0.784455C3.16512 0.784455 3.09812 0.614455 2.97912 0.523455C2.87517 0.45063 2.75687 0.400852 2.63212 0.377455H0.48912C0.48912 0.377455 0.16712 0.387455 0.04912 0.533455C-0.05588 0.663455 0.04012 0.931455 0.04012 0.931455C0.04012 0.931455 1.71812 5.05146 3.61812 7.11146C5.36012 9.00146 7.33912 8.89046 7.33912 8.89046Z"/>
    </symbol>
    <symbol id="facebook" viewBox="0 0 15 15">
        <path d="M15 7.546C15 3.377 11.643 0 7.5 0C3.357 0 0 3.377 0 7.546C0 11.312 2.743 14.434 6.328 15V9.727H4.423V7.546H6.328V5.883C6.328 3.993 7.448 2.948 9.161 2.948C9.981 2.948 10.84 3.095 10.84 3.095V4.95H9.894C8.963 4.95 8.672 5.532 8.672 6.128V7.545H10.752L10.419 9.725H8.672V15C12.257 14.434 15 11.312 15 7.546Z"/>
    </symbol>
    <symbol id="instagram" viewBox="0 0 15 15">
        <path fill-rule="evenodd" clip-rule="evenodd" d="M10.86 15H4.139C3.0415 14.9987 1.98935 14.562 1.21339 13.7859C0.437439 13.0098 0.00105856 11.9575 0 10.86L0 4.14C0.00105856 3.0425 0.437439 1.99024 1.21339 1.2141C1.98935 0.437958 3.0415 0.00132369 4.139 0L10.86 0C11.9577 0.00105902 13.0101 0.437576 13.7863 1.21375C14.5624 1.98992 14.9989 3.04233 15 4.14V10.86C14.9987 11.9576 14.5621 13.0098 13.786 13.786C13.0098 14.5621 11.9576 14.9987 10.86 15ZM13.669 10.86V4.14C13.669 2.59 12.409 1.33 10.86 1.33H4.139C3.39425 1.33106 2.68034 1.62752 2.15391 2.15432C1.62748 2.68113 1.33153 3.39525 1.331 4.14V10.86C1.33179 11.6046 1.62786 12.3184 2.15426 12.845C2.68066 13.3716 3.39442 13.6679 4.139 13.669H10.86C11.6049 13.6682 12.3191 13.3719 12.8457 12.845C13.3724 12.3182 13.6685 11.6039 13.669 10.859V10.86ZM11.527 4.458C11.2689 4.45674 11.0216 4.35443 10.838 4.173C10.6552 3.98938 10.5521 3.74112 10.551 3.482C10.5521 3.22347 10.6552 2.97583 10.838 2.79303C11.0208 2.61022 11.2685 2.50705 11.527 2.506C11.7855 2.50705 12.0332 2.61022 12.216 2.79303C12.3988 2.97583 12.5019 3.22347 12.503 3.482C12.5021 3.74065 12.3993 3.98853 12.217 4.172C12.0332 4.35377 11.7855 4.45642 11.527 4.458ZM7.5 11.365C6.47534 11.3637 5.49304 10.956 4.76849 10.2315C4.04395 9.50696 3.63632 8.52466 3.635 7.5C3.63632 6.47534 4.04395 5.49304 4.76849 4.76849C5.49304 4.04395 6.47534 3.63632 7.5 3.635C8.52466 3.63632 9.50696 4.04395 10.2315 4.76849C10.956 5.49304 11.3637 6.47534 11.365 7.5C11.3637 8.52466 10.956 9.50696 10.2315 10.2315C9.50696 10.956 8.52466 11.3637 7.5 11.365ZM7.5 4.965C6.82793 4.96553 6.18355 5.23281 5.70842 5.70813C5.23329 6.18345 4.96626 6.82793 4.966 7.5C4.96679 8.17181 5.23402 8.81589 5.70907 9.29093C6.18411 9.76598 6.82819 10.0332 7.5 10.034C8.17181 10.0332 8.81589 9.76598 9.29093 9.29093C9.76598 8.81589 10.0332 8.17181 10.034 7.5C10.0332 6.82819 9.76598 6.18411 9.29093 5.70907C8.81589 5.23402 8.17181 4.96679 7.5 4.966V4.965Z"/>
    </symbol>
    <symbol id="odnoklassniki" viewBox="0 0 10 15">
        <path fill-rule="evenodd" clip-rule="evenodd" d="M8.76541 9.084C8.3007 9.5523 7.74023 9.91458 7.12241 10.146C6.53641 10.373 5.89441 10.487 5.25841 10.564C5.35441 10.668 5.39941 10.719 5.45941 10.78C6.32241 11.647 7.18941 12.512 8.05041 13.382C8.34341 13.679 8.40441 14.046 8.24241 14.392C8.06641 14.768 7.67241 15.016 7.28441 14.99C7.03841 14.973 6.84741 14.851 6.67741 14.68C6.02541 14.023 5.36241 13.38 4.72441 12.712C4.53841 12.517 4.44841 12.554 4.28541 12.723C3.62941 13.398 2.96341 14.063 2.29341 14.723C1.99241 15.02 1.63541 15.073 1.28641 14.903C0.916409 14.723 0.679409 14.345 0.697409 13.965C0.710409 13.707 0.836409 13.51 1.01341 13.334C1.86741 12.481 2.71941 11.625 3.57141 10.77C3.62841 10.714 3.68041 10.653 3.76241 10.565C2.60041 10.444 1.55241 10.158 0.655409 9.455C0.545409 9.368 0.429409 9.285 0.327409 9.186C-0.0645909 8.809 -0.104591 8.377 0.207409 7.932C0.472409 7.55 0.918409 7.448 1.38241 7.667C1.47141 7.71 1.55741 7.763 1.63941 7.82C3.31141 8.969 5.60741 9 7.28641 7.87C7.45241 7.743 7.63041 7.639 7.83641 7.586C8.23641 7.483 8.61041 7.63 8.82541 7.98C9.07041 8.381 9.06741 8.772 8.76541 9.083V9.084ZM4.47041 7.592C2.39741 7.586 0.697409 5.866 0.709409 3.788C0.713116 2.78121 1.116 1.81699 1.8297 1.10686C2.54339 0.396732 3.50961 -0.00132753 4.51641 3.32646e-06C6.61441 0.00600333 8.29741 1.723 8.28741 3.846C8.27641 5.92 6.56541 7.6 4.47041 7.592ZM4.50141 1.94C4.25567 1.93892 4.01218 1.9868 3.78516 2.08086C3.55813 2.17491 3.35212 2.31326 3.17915 2.48781C3.00618 2.66236 2.86972 2.86963 2.77773 3.0975C2.68575 3.32537 2.64009 3.56929 2.64341 3.815C2.64458 4.05858 2.69387 4.29953 2.78845 4.524C2.88302 4.74847 3.02102 4.95204 3.1945 5.12302C3.36799 5.294 3.57355 5.42901 3.79938 5.52031C4.0252 5.6116 4.26684 5.65738 4.51041 5.655C4.7541 5.65488 4.99535 5.60651 5.22025 5.51268C5.44515 5.41885 5.64925 5.28142 5.82077 5.10832C5.99229 4.93522 6.12784 4.72987 6.2196 4.50412C6.31137 4.27837 6.35752 4.03668 6.35541 3.793C6.3562 3.54936 6.30878 3.30796 6.21588 3.08272C6.12297 2.85748 5.98642 2.65285 5.81409 2.48061C5.64176 2.30837 5.43706 2.17193 5.21177 2.07915C4.98648 1.98637 4.74505 1.93908 4.50141 1.94Z"/>
    </symbol>
    <symbol id="user" viewBox="0 0 26 26" fill="none">
        <path d="M13 26C10.4288 26 7.91543 25.2376 5.77759 23.8091C3.63975 22.3807 1.97351 20.3503 0.989572 17.9749C0.0056327 15.5995 -0.251811 12.9856 0.249797 10.4638C0.751405 7.94208 1.98953 5.6257 3.80762 3.80762C5.6257 1.98953 7.94208 0.751405 10.4638 0.249797C12.9856 -0.251811 15.5995 0.0056327 17.9749 0.989572C20.3503 1.97351 22.3807 3.63975 23.8091 5.77759C25.2376 7.91543 26 10.4288 26 13C26 16.4478 24.6304 19.7544 22.1924 22.1924C19.7544 24.6304 16.4478 26 13 26ZM13 2.00001C10.8244 2.00001 8.69767 2.64514 6.88873 3.85384C5.07979 5.06254 3.66989 6.7805 2.83733 8.79049C2.00477 10.8005 1.78693 13.0122 2.21137 15.146C2.63581 17.2798 3.68345 19.2398 5.22183 20.7782C6.76021 22.3166 8.72022 23.3642 10.854 23.7886C12.9878 24.2131 15.1995 23.9952 17.2095 23.1627C19.2195 22.3301 20.9375 20.9202 22.1462 19.1113C23.3549 17.3023 24 15.1756 24 13C24 10.0826 22.8411 7.28473 20.7782 5.22183C18.7153 3.15893 15.9174 2.00001 13 2.00001Z" fill="#918588"/>
        <path d="M13 14C12.0111 14 11.0444 13.7068 10.2222 13.1574C9.39991 12.6079 8.75904 11.827 8.3806 10.9134C8.00217 9.99979 7.90315 8.99446 8.09608 8.02455C8.289 7.05465 8.76521 6.16373 9.46447 5.46447C10.1637 4.76521 11.0546 4.289 12.0246 4.09608C12.9945 3.90315 13.9998 4.00217 14.9134 4.3806C15.8271 4.75904 16.6079 5.39991 17.1574 6.22215C17.7068 7.0444 18 8.0111 18 9C18 10.3261 17.4732 11.5979 16.5355 12.5355C15.5979 13.4732 14.3261 14 13 14ZM13 6C12.4067 6 11.8266 6.17595 11.3333 6.50559C10.8399 6.83524 10.4554 7.30377 10.2284 7.85195C10.0013 8.40013 9.94189 9.00333 10.0576 9.58527C10.1734 10.1672 10.4591 10.7018 10.8787 11.1213C11.2982 11.5409 11.8328 11.8266 12.4147 11.9424C12.9967 12.0581 13.5999 11.9987 14.1481 11.7716C14.6962 11.5446 15.1648 11.1601 15.4944 10.6667C15.8241 10.1734 16 9.59335 16 9C16 8.20435 15.6839 7.44129 15.1213 6.87868C14.5587 6.31607 13.7957 6 13 6Z" fill="#918588"/>
        <path d="M22.55 21C22.4112 21.001 22.2738 20.973 22.1464 20.9179C22.019 20.8628 21.9044 20.7818 21.81 20.68C20.7486 19.5223 19.4584 18.5974 18.0212 17.9639C16.5839 17.3305 15.0307 17.0023 13.46 17H12.54C9.61225 16.9937 6.79691 18.127 4.69005 20.16C4.49538 20.3207 4.24718 20.4017 3.99523 20.387C3.74329 20.3723 3.50622 20.2628 3.3316 20.0806C3.15698 19.8984 3.05771 19.6569 3.05371 19.4046C3.04972 19.1522 3.14128 18.9077 3.31004 18.72C5.78592 16.327 9.0967 14.9926 12.54 15H13.46C15.3063 15.0042 17.1317 15.3901 18.8216 16.1336C20.5115 16.877 22.0295 17.9619 23.28 19.32C23.4122 19.4625 23.4999 19.6404 23.5326 19.8319C23.5653 20.0234 23.5414 20.2204 23.464 20.3986C23.3866 20.5768 23.2589 20.7286 23.0966 20.8354C22.9343 20.9422 22.7443 20.9994 22.55 21Z" fill="#918588"/>
    </symbol>
    <symbol id="clock" viewBox="0 0 26 26" fill="none">
        <path d="M17.24 19.66L12.29 14.71C12.1973 14.6166 12.124 14.5057 12.0742 14.3839C12.0245 14.2621 11.9993 14.1316 12 14V6H14V13.59L18.66 18.24L17.24 19.66Z" fill="#918588"/>
        <circle cx="13" cy="13" r="12" stroke="#918588" stroke-width="2"/>
    </symbol>
</svg>
